<svg xmlns="http://www.w3.org/2000/svg" xmlns:xlink="http://www.w3.org/1999/xlink" enable-background="new 0 0 512 512" height="512" version="1.1" width="512" xml:space="preserve" style=""><rect id="backgroundrect" width="100%" height="100%" x="0" y="0" fill="none" stroke="none"/><g class="currentLayer" style=""><title>Layer 1</title><g id="svg_1" class="selected" fill="#ff6600" fill-opacity="1"><path d="M313.475,232.455c0,31.954-25.866,57.909-57.899,57.909c-31.953,0-57.899-25.955-57.899-57.909   c0-31.989,25.946-57.899,57.899-57.899C287.608,174.556,313.475,200.466,313.475,232.455z" fill="#ff6600" id="svg_2" fill-opacity="1"/><path d="M417.921,443.777H99.369v-11.714c0-23.803-16.438-119.512-27.567-180.079l-19.947,15.259L4.545,211.117   L259.554,10.108l247.077,197.216l-49.845,55.781l-11.633-9.083c-11.068,60.222-27.365,154.877-27.276,177.996L417.921,443.777z    M122.187,420.348h272.855c4.306-49.534,29.473-183.436,30.615-189.63l3.562-18.954l24.723,19.344l18.68-20.93L259.464,40.024   L38.067,214.538l17.306,20.523l32.494-24.848l3.492,18.715C92.546,235.175,117.836,370.264,122.187,420.348z" fill="#ff6600" id="svg_3" fill-opacity="1"/><rect fill="#ff6600" height="30.48200035095215" width="130.27000427246094" x="190.43600463867188" y="468.3139953613281" id="svg_4" fill-opacity="1"/></g></g></svg>